<svg preserveAspectRatio="none" width="100%" height="100%" overflow="visible" style="display: block;" viewBox="0 0 77.3572 77.3567" fill="none" xmlns="http://www.w3.org/2000/svg">
<path id="Vector" d="M38.6791 76.3526C43.7659 76.3526 48.6994 75.3567 53.3425 73.3924C57.8273 71.4957 61.8568 68.7792 65.3188 65.3184C68.7791 61.8579 71.4952 57.829 73.3918 53.3432C75.3568 48.6988 76.3532 43.7653 76.3532 38.6796C76.3532 33.5933 75.3568 28.6593 73.3917 24.0143C71.4952 19.5285 68.779 15.4992 65.319 12.0387C61.8568 8.57767 57.8273 5.86103 53.3424 3.96423C48.6994 2.00003 43.7659 1.00409 38.6791 1.00409C33.5926 1.00409 28.6588 2.00004 24.0147 3.96428C19.5279 5.86188 15.4981 8.57849 12.0375 12.0385C8.57722 15.4992 5.86111 19.5284 3.96447 24.0145C2.00011 28.6577 1.00409 33.5917 1.00409 38.6796C1.00409 43.7668 2.00011 48.7004 3.96456 53.3434C5.8611 57.829 8.57721 61.8579 12.0373 65.3183C15.4981 68.7783 19.5278 71.4948 24.0148 73.3925C28.6588 75.3566 33.5926 76.3526 38.6791 76.3526ZM38.6791 5.72212C43.1278 5.72212 47.4443 6.59367 51.5088 8.31265C55.4325 9.97294 58.9563 12.3492 61.9821 15.3753C65.0071 18.4002 67.3831 21.9247 69.0442 25.851C70.7625 29.9144 71.6337 34.2305 71.6337 38.6796C71.6337 43.1287 70.7625 47.4447 69.0441 51.5079C67.3831 55.4339 65.0071 58.9581 61.9821 61.9826C58.9563 65.0084 55.4325 67.3844 51.5086 69.0445C47.4442 70.7631 43.1278 71.6345 38.6791 71.6345C34.2311 71.6345 29.915 70.7631 25.8506 69.0445C21.9263 67.385 18.4018 65.009 15.375 61.9825C12.349 58.956 9.97268 55.4318 8.31198 51.5076C6.59376 47.4422 5.72254 43.1262 5.72254 38.6796C5.72254 34.233 6.59376 29.9169 8.31215 25.8508C9.97267 21.9267 12.349 18.4023 15.3751 15.3753C18.4018 12.3492 21.9262 9.97299 25.8506 8.31257C29.9149 6.59367 34.2311 5.72212 38.6791 5.72212ZM38.6791 77.3567C33.4576 77.3567 28.3921 76.334 23.6236 74.3172C19.017 72.369 14.88 69.5802 11.3274 66.0284C7.77583 62.4766 4.98712 58.3403 3.03973 53.7344C1.02272 48.9672 0 43.902 0 38.6796C0 33.4566 1.02272 28.3909 3.03973 23.6233C4.98712 19.0172 7.77583 14.8806 11.3274 11.3286C14.88 7.77662 19.017 4.98776 23.6236 3.03949C28.3921 1.02263 33.4576 0 38.6791 0C43.9006 0 48.9661 1.02263 53.7336 3.03949C58.3393 4.98737 62.4753 7.77622 66.0288 11.3286C69.5804 14.8806 72.3691 19.0172 74.3165 23.6233C76.3335 28.3909 77.3572 33.4566 77.3572 38.6796C77.3572 43.902 76.3335 48.9672 74.3165 53.7344C72.3691 58.3402 69.5804 62.4766 66.0288 66.0284C62.4753 69.5806 58.3393 72.3694 53.7336 74.3172C48.9661 76.334 43.9006 77.3567 38.6791 77.3567ZM38.6791 6.72621C34.3656 6.72621 30.1816 7.57109 26.2417 9.23737C22.4371 10.8471 19.0199 13.151 16.0851 16.0853C13.1513 19.02 10.8469 22.4372 9.23686 26.2421C7.57188 30.1818 6.72663 34.3664 6.72663 38.6796C6.72663 42.9928 7.57188 47.1773 9.23686 51.1167C10.8469 54.9213 13.1513 58.3383 16.0851 61.2726C19.0199 64.2071 22.4371 66.5108 26.2417 68.1197C30.1816 69.7857 34.3656 70.6305 38.6791 70.6305C42.9926 70.6305 47.1776 69.7857 51.1175 68.1197C54.9221 66.51 58.3383 64.2063 61.2722 61.2726C64.206 58.3392 66.5093 54.9223 68.1194 51.1167C69.7854 47.1773 70.6296 42.9929 70.6296 38.6796C70.6296 34.3663 69.7854 30.1817 68.1194 26.2421C66.5093 22.4362 64.206 19.019 61.2722 16.0853C58.3383 13.1512 54.9221 10.8472 51.1175 9.23737C47.1776 7.57109 42.9926 6.72621 38.6791 6.72621Z" fill="var(--fill-0, #707070)"/>
</svg>
