<svg preserveAspectRatio="none" width="100%" height="100%" overflow="visible" style="display: block;" viewBox="0 0 76.3531 76.3526" fill="none" xmlns="http://www.w3.org/2000/svg">
<path id="Vector" d="M38.1771 76.3526C33.023 76.3526 28.0234 75.3433 23.3171 73.3528C18.7704 71.4299 14.687 68.6772 11.1803 65.1713C7.67418 61.6649 4.92194 57.5823 3.0001 53.0369C1.00936 48.3317 0 43.3324 0 38.1775C0 33.0221 1.00936 28.0222 3.00006 23.3169C4.92194 18.771 7.67418 14.6882 11.1804 11.1815C14.687 7.6755 18.7704 4.92276 23.3171 2.99983C28.0234 1.00928 33.023 0 38.1771 0C43.3315 0 48.3307 1.00928 53.036 2.99981C57.5806 4.92189 61.6637 7.67462 65.1718 11.1816C68.6779 14.6882 71.4302 18.771 73.3521 23.3167C75.3434 28.0238 76.3531 33.0237 76.3531 38.1775C76.3531 43.3308 75.3434 48.3302 73.3521 53.0368C71.4302 57.5823 68.678 61.6649 65.1718 65.1714C61.6637 68.6781 57.5806 71.4308 53.036 73.3528C48.3307 75.3433 43.3314 76.3526 38.1771 76.3526ZM38.1771 5.72212C33.7965 5.72212 29.5462 6.58033 25.5441 8.27292C21.6796 9.90798 18.2088 12.2481 15.2281 15.2283C12.2479 18.2093 9.90766 21.6801 8.27245 25.5444C6.58042 29.5481 5.72253 33.7984 5.72253 38.1775C5.72253 42.5567 6.58042 46.8069 8.27237 50.8101C9.90767 54.6743 12.2479 58.1449 15.228 61.1255C18.2088 64.106 21.6796 66.4458 25.5441 68.0801C29.5462 69.7724 33.7966 70.6304 38.1771 70.6304C42.5582 70.6304 46.8089 69.7724 50.811 68.0801C54.675 66.4452 58.1451 64.1054 61.1251 61.1255C64.1041 58.147 66.444 54.6764 68.0797 50.8102C69.7717 46.8093 70.6296 42.5591 70.6296 38.1775C70.6296 33.796 69.7717 29.5456 68.0797 25.5445C66.444 21.678 64.1042 18.2072 61.1251 15.2283C58.1451 12.248 54.675 9.90792 50.8111 8.27296C46.8089 6.58033 42.5582 5.72212 38.1771 5.72212Z" fill="var(--fill-0, #F4F9FF)"/>
</svg>
