<svg preserveAspectRatio="none" width="100%" height="100%" overflow="visible" style="display: block;" viewBox="0 0 203 162" fill="none" xmlns="http://www.w3.org/2000/svg">
<g id="Group 32483">
<g id="Rectangle 10504">
<g id="Vector">
</g>
<path id="Vector_2" d="M41 3H8C5.23858 3 3 5.23858 3 8V40C3 42.7614 5.23858 45 8 45H41C43.7614 45 46 42.7614 46 40V8C46 5.23858 43.7614 3 41 3Z" stroke="var(--stroke-0, #5BA2E5)" stroke-width="6"/>
</g>
<g id="Rectangle 10506">
<g id="Vector_3">
</g>
<path id="Vector_4" d="M41 58H8C5.23858 58 3 60.2386 3 63V95C3 97.7614 5.23858 100 8 100H41C43.7614 100 46 97.7614 46 95V63C46 60.2386 43.7614 58 41 58Z" stroke="var(--stroke-0, #5BA2E5)" stroke-width="6"/>
</g>
<g id="Rectangle 10505">
<g id="Vector_5">
</g>
<path id="Vector_6" d="M96 3H64C61.2386 3 59 5.23858 59 8V40C59 42.7614 61.2386 45 64 45H96C98.7614 45 101 42.7614 101 40V8C101 5.23858 98.7614 3 96 3Z" stroke="var(--stroke-0, #5BA2E5)" stroke-width="6"/>
</g>
<path id="Rectangle 10507" d="M33 12H17C14.7909 12 13 13.7909 13 16V32C13 34.2091 14.7909 36 17 36H33C35.2091 36 37 34.2091 37 32V16C37 13.7909 35.2091 12 33 12Z" fill="var(--fill-0, #D4E6F7)"/>
<path id="Rectangle 10509" d="M88 12H72C69.7909 12 68 13.7909 68 16V32C68 34.2091 69.7909 36 72 36H88C90.2091 36 92 34.2091 92 32V16C92 13.7909 90.2091 12 88 12Z" fill="var(--fill-0, #D4E6F7)"/>
<path id="Path 33339" d="M16.5 67.572H32.5C33.5609 67.572 34.5783 67.9934 35.3284 68.7435C36.0786 69.4937 36.5 70.5111 36.5 71.572V86.429C36.5 87.4898 36.0786 88.5072 35.3284 89.2574C34.5783 90.0075 33.5609 90.429 32.5 90.429H16.5C15.4391 90.429 14.4217 90.0075 13.6716 89.2574C12.9214 88.5072 12.5 87.4898 12.5 86.429V71.572C12.5 70.5111 12.9214 69.4937 13.6716 68.7435C14.4217 67.9934 15.4391 67.572 16.5 67.572Z" fill="var(--fill-0, #D4E6F7)"/>
<path id="Rectangle 10510" d="M67 55H58C56.8954 55 56 55.8954 56 57V66C56 67.1046 56.8954 68 58 68H67C68.1046 68 69 67.1046 69 66V57C69 55.8954 68.1046 55 67 55Z" fill="var(--fill-0, #5BA2E5)"/>
<path id="Rectangle 10511" d="M67 63H65C63.8954 63 63 63.8954 63 65V73C63 74.1046 63.8954 75 65 75H67C68.1046 75 69 74.1046 69 73V65C69 63.8954 68.1046 63 67 63Z" fill="var(--fill-0, #5BA2E5)"/>
<path id="Rectangle 10512" d="M73 62H68C66.8954 62 66 62.8954 66 64V66C66 67.1046 66.8954 68 68 68H73C74.1046 68 75 67.1046 75 66V64C75 62.8954 74.1046 62 73 62Z" fill="var(--fill-0, #5BA2E5)"/>
<path id="Rectangle 10513" d="M61 75H58C56.8954 75 56 75.8954 56 77V101C56 102.105 56.8954 103 58 103H61C62.1046 103 63 102.105 63 101V77C63 75.8954 62.1046 75 61 75Z" fill="var(--fill-0, #5BA2E5)"/>
<path id="Rectangle 10514" d="M67 89H61C59.8954 89 59 89.8954 59 91V94C59 95.1046 59.8954 96 61 96H67C68.1046 96 69 95.1046 69 94V91C69 89.8954 68.1046 89 67 89Z" fill="var(--fill-0, #5BA2E5)"/>
<path id="Rectangle 10515" d="M102 89H78C76.8954 89 76 89.8954 76 91V94C76 95.1046 76.8954 96 78 96H102C103.105 96 104 95.1046 104 94V91C104 89.8954 103.105 89 102 89Z" fill="var(--fill-0, #5BA2E5)"/>
<path id="Rectangle 10516" d="M88 91H85C83.8954 91 83 91.8954 83 93V101C83 102.105 83.8954 103 85 103H88C89.1046 103 90 102.105 90 101V93C90 91.8954 89.1046 91 88 91Z" fill="var(--fill-0, #5BA2E5)"/>
<path id="Rectangle 10517" d="M102 90H99C97.8954 90 97 90.8954 97 92V101C97 102.105 97.8954 103 99 103H102C103.105 103 104 102.105 104 101V92C104 90.8954 103.105 90 102 90Z" fill="var(--fill-0, #5BA2E5)"/>
<path id="Rectangle 10518" d="M96 82H92C90.8954 82 90 82.8954 90 84V91C90 92.1046 90.8954 93 92 93H96C97.1046 93 98 92.1046 98 91V84C98 82.8954 97.1046 82 96 82Z" fill="var(--fill-0, #5BA2E5)"/>
<path id="Rectangle 10519" d="M82 84H71C69.8954 84 69 84.8954 69 86V89C69 90.1046 69.8954 91 71 91H82C83.1046 91 84 90.1046 84 89V86C84 84.8954 83.1046 84 82 84Z" fill="var(--fill-0, #5BA2E5)"/>
<path id="Rectangle 10520" d="M82 67H78C76.8954 67 76 67.8954 76 69V73C76 74.1046 76.8954 75 78 75H82C83.1046 75 84 74.1046 84 73V69C84 67.8954 83.1046 67 82 67Z" fill="var(--fill-0, #5BA2E5)"/>
<path id="Rectangle 10521" d="M95 67H91C89.8954 67 89 67.8954 89 69V73C89 74.1046 89.8954 75 91 75H95C96.1046 75 97 74.1046 97 73V69C97 67.8954 96.1046 67 95 67Z" fill="var(--fill-0, #5BA2E5)"/>
<path id="Rectangle 10522" d="M102 74H98C96.8954 74 96 74.8954 96 76V80C96 81.1046 96.8954 82 98 82H102C103.105 82 104 81.1046 104 80V76C104 74.8954 103.105 74 102 74Z" fill="var(--fill-0, #5BA2E5)"/>
<path id="Rectangle 10523" d="M102 55H85C83.8954 55 83 55.8954 83 57V60C83 61.1046 83.8954 62 85 62H102C103.105 62 104 61.1046 104 60V57C104 55.8954 103.105 55 102 55Z" fill="var(--fill-0, #5BA2E5)"/>
<g id="Rectangle 10524">
<g id="fill">
</g>
<g id="Clip path group">
<mask id="mask0_0_130" style="mask-type:luminance" maskUnits="userSpaceOnUse" x="inf" y="inf" width="-nan" height="-nan">
<g id="clip">
<g id="fill_2">
</g>
</g>
</mask>
<g mask="url(#mask0_0_130)">
<g id="Vector_7">
</g>
</g>
</g>
</g>
<path id="Rectangle 10525" d="M88 56H85C83.8954 56 83 56.8954 83 58V66C83 67.1046 83.8954 68 85 68H88C89.1046 68 90 67.1046 90 66V58C90 56.8954 89.1046 56 88 56Z" fill="var(--fill-0, #5BA2E5)"/>
</g>
</svg>
